# xmcd
#
# Track frame offsets:
#	150
#	19653
#	42540
#	55418
#	74733
#	90905
#	110915
#	124218
#	142020
#	164448
#
# Disc length: 2414 seconds
#
# Revision: 1
# Processed by: cddbd v1.5.2PL0 Copyright (c) Steve Scherf et al.
# Submitted via: SynApp - FreeCDDB Version: 2.5
#
DISCID=97096c0a
DTITLE=Orchester Anthony Ventura - Traum-Melodien 3
DYEAR=1991
DGENRE=Dream
TTITLE0=Vayos con dias - House of the Rising Sun
TTITLE1=Are You Lonesome Tonight - Detroit City
TTITLE2=Island in the Sun
TTITLE3=Red Roses for a Blue Lady - Love Letters in the Sand
TTITLE4=Jill's Theme
TTITLE5=I Can't Stop Loving You
TTITLE6=Don't Tell Me Why
TTITLE7=I Almost Lost My Mind - Soleado
TTITLE8=My Happiness - Only You
TTITLE9=Tennessee Waltz - Amazing Graze
EXTD=
EXTT0=
EXTT1=
EXTT2=
EXTT3=
EXTT4=
EXTT5=
EXTT6=
EXTT7=
EXTT8=
EXTT9=
PLAYORDER=
